<svg xmlns="http://www.w3.org/2000/svg" xmlns:xlink="http://www.w3.org/1999/xlink" width="500" zoomAndPan="magnify" viewBox="0 0 375 374.999991" height="500" preserveAspectRatio="xMidYMid meet" version="1.0"><defs><clipPath id="id1"><path d="M 2.195312 64.585938 L 372.695312 64.585938 L 372.695312 310.585938 L 2.195312 310.585938 Z M 2.195312 64.585938 " clip-rule="nonzero"/></clipPath></defs><g clip-path="url(#id1)"><path fill="rgb(100%, 100%, 100%)" d="M 372.71875 186.160156 L 372.71875 186.867188 C 372.71875 245.625 337.320312 291.847656 274.90625 305.972656 L 172.300781 64.703125 L 234.195312 64.703125 C 321.863281 64.703125 372.71875 115.253906 372.71875 186.160156 Z M 205.265625 310.433594 L 139.507812 310.433594 L 139.507812 266.863281 L 187.726562 266.863281 Z M 167.738281 214.230469 L 139.507812 214.230469 L 139.507812 143.554688 Z M 139.507812 64.703125 L 106.714844 64.703125 L 2.210938 310.429688 L 73.75 310.429688 L 91.289062 266.863281 L 139.507812 266.863281 L 139.507812 214.230469 L 111.277344 214.230469 L 139.507812 143.554688 L 139.507812 64.703125 " fill-opacity="1" fill-rule="nonzero"/></g></svg>